<?xml version="1.0" encoding="UTF-8"?>
<svg id="_レイヤー_1" data-name="レイヤー 1" xmlns="http://www.w3.org/2000/svg" xmlns:xlink="http://www.w3.org/1999/xlink" viewBox="0 0 1950 1050">
  <defs>
    <pattern id="Argyle" x="0" y="0" width="200" height="300" patternTransform="translate(-6.4 -20.44) scale(1.03)" patternUnits="userSpaceOnUse" viewBox="0 0 200 300">
      <g>
        <rect width="200" height="300" fill="none" stroke-width="0"/>
        <path d="M100,75l50,75-50,75-50-75,50-75ZM83.06,175.42c-.69-.46-1.62-.27-2.08.42l-4.44,6.67c-.46.69-.27,1.62.42,2.08.26.17.54.25.83.25.48,0,.96-.23,1.25-.67l4.44-6.67c.46-.69.27-1.62-.42-2.08ZM83.47,122.5l-4.44-6.67c-.46-.69-1.39-.88-2.08-.42-.69.46-.88,1.39-.42,2.08l4.44,6.67c.29.43.76.67,1.25.67.29,0,.57-.08.83-.25.69-.46.88-1.39.42-2.08ZM86.53,132.5l4.44,6.67c.29.43.76.67,1.25.67.29,0,.57-.08.83-.25.69-.46.88-1.39.42-2.08l-4.44-6.67c-.46-.69-1.39-.88-2.08-.42-.69.46-.88,1.39-.42,2.08ZM93.06,160.41c-.69-.46-1.62-.27-2.08.42l-4.44,6.67c-.46.69-.27,1.62.42,2.08.26.17.54.25.83.25.48,0,.96-.23,1.25-.67l4.44-6.67c.46-.69.27-1.62-.42-2.08ZM116.94,124.58c.26.17.54.25.83.25.48,0,.96-.23,1.25-.67l4.44-6.67c.46-.69.27-1.62-.42-2.08-.69-.46-1.62-.27-2.08.42l-4.44,6.67c-.46.69-.27,1.62.42,2.08ZM116.53,177.5l4.44,6.67c.29.43.76.67,1.25.67.29,0,.57-.08.83-.25.69-.46.88-1.39.42-2.08l-4.44-6.67c-.46-.69-1.39-.88-2.08-.42-.69.46-.88,1.39-.42,2.08ZM113.47,167.5l-4.44-6.67c-.46-.69-1.39-.88-2.08-.42-.69.46-.88,1.39-.42,2.08l4.44,6.67c.29.43.76.67,1.25.67.29,0,.57-.08.83-.25.69-.46.88-1.39.42-2.08ZM106.94,139.59c.26.17.54.25.83.25.48,0,.96-.23,1.25-.67l4.44-6.67c.46-.69.27-1.62-.42-2.08-.69-.46-1.62-.27-2.08.42l-4.44,6.67c-.46.69-.27,1.62.42,2.08ZM100.97,145.84l-.97,1.46-.97-1.46c-.46-.69-1.39-.88-2.08-.42s-.88,1.39-.42,2.08l1.66,2.5-1.66,2.5c-.46.69-.27,1.62.42,2.08.26.17.54.25.83.25.48,0,.96-.23,1.25-.67l.97-1.46.97,1.46c.29.43.76.67,1.25.67.29,0,.57-.08.83-.25.69-.46.88-1.39.42-2.08l-1.66-2.5,1.66-2.5c.46-.69.27-1.62-.42-2.08-.69-.46-1.62-.27-2.08.42Z" fill="#1e5783" stroke-width="0"/>
        <path d="M150,150l50-75v72.3l-.97-1.46c-.46-.69-1.39-.88-2.08-.42-.69.46-.88,1.39-.42,2.08l1.66,2.5-1.66,2.5c-.46.69-.27,1.62.42,2.08.26.17.54.25.83.25.48,0,.96-.23,1.25-.67l.97-1.46v72.3l-50-75ZM183.06,175.42c-.69-.46-1.62-.27-2.08.42l-4.44,6.67c-.46.69-.27,1.62.42,2.08.26.17.54.25.83.25.48,0,.96-.23,1.25-.67l4.44-6.67c.46-.69.27-1.62-.42-2.08ZM193.06,160.41c-.69-.46-1.62-.27-2.08.42l-4.44,6.67c-.46.69-.27,1.62.42,2.08.26.17.54.25.83.25.48,0,.96-.23,1.25-.67l4.44-6.67c.46-.69.27-1.62-.42-2.08ZM186.53,132.5l4.44,6.67c.29.43.76.67,1.25.67.29,0,.57-.08.83-.25.69-.46.88-1.39.42-2.08l-4.44-6.67c-.46-.69-1.39-.88-2.08-.42-.69.46-.88,1.39-.42,2.08ZM176.53,117.5l4.44,6.67c.29.43.76.67,1.25.67.29,0,.57-.08.83-.25.69-.46.88-1.39.42-2.08l-4.44-6.67c-.46-.69-1.39-.88-2.08-.42-.69.46-.88,1.39-.42,2.08Z" fill="#1e5783" stroke-width="0"/>
        <path d="M50,150L0,225v-72.3l.97,1.46c.29.43.76.67,1.25.67.29,0,.57-.08.83-.25.69-.46.88-1.39.42-2.08l-1.66-2.5,1.66-2.5c.46-.69.27-1.62-.42-2.08-.69-.46-1.62-.27-2.08.42l-.97,1.46v-72.3l50,75ZM16.94,124.58c.26.17.54.25.83.25.48,0,.96-.23,1.25-.67l4.44-6.67c.46-.69.27-1.62-.42-2.08-.69-.46-1.62-.27-2.08.42l-4.44,6.67c-.46.69-.27,1.62.42,2.08ZM6.94,139.59c.26.17.54.25.83.25.48,0,.96-.23,1.25-.67l4.44-6.67c.46-.69.27-1.62-.42-2.08-.69-.46-1.62-.27-2.08.42l-4.44,6.67c-.46.69-.27,1.62.42,2.08ZM13.47,167.5l-4.44-6.67c-.46-.69-1.39-.88-2.08-.42-.69.46-.88,1.39-.42,2.08l4.44,6.67c.29.43.76.67,1.25.67.29,0,.57-.08.83-.25.69-.46.88-1.39.42-2.08ZM23.47,182.5l-4.44-6.67c-.46-.69-1.39-.88-2.08-.42-.69.46-.88,1.39-.42,2.08l4.44,6.67c.29.43.76.67,1.25.67.29,0,.57-.08.83-.25.69-.46.88-1.39.42-2.08Z" fill="#1e5783" stroke-width="0"/>
        <path d="M200,75L150,0h48.2l-1.66,2.5c-.46.69-.27,1.62.42,2.08.69.46,1.62.27,2.08-.42l.97-1.46v72.3ZM183.06,25.42c-.69-.46-1.62-.27-2.08.42l-4.44,6.67c-.46.69-.27,1.62.42,2.08.26.17.54.25.83.25.48,0,.96-.23,1.25-.67l4.44-6.67c.46-.69.27-1.62-.42-2.08ZM193.06,10.41c-.69-.46-1.62-.27-2.08.42l-4.44,6.67c-.46.69-.27,1.62.42,2.08.26.17.54.25.83.25.48,0,.96-.23,1.25-.67l4.44-6.67c.46-.69.27-1.62-.42-2.08Z" fill="#1e5783" stroke-width="0"/>
        <path d="M0,225l50,75H1.8l1.66-2.5c.46-.69.27-1.62-.42-2.08-.69-.46-1.62-.27-2.08.42l-.97,1.46v-72.3ZM16.94,274.58c.26.17.54.25.83.25.48,0,.96-.23,1.25-.67l4.44-6.67c.46-.69.27-1.62-.42-2.08-.69-.46-1.62-.27-2.08.42l-4.44,6.67c-.46.69-.27,1.62.42,2.08ZM6.94,289.59c.26.17.54.25.83.25.48,0,.96-.23,1.25-.67l4.44-6.67c.46-.69.27-1.62-.42-2.08-.69-.46-1.62-.27-2.08.42l-4.44,6.67c-.46.69-.27,1.62.42,2.08Z" fill="#1e5783" stroke-width="0"/>
        <path d="M50,0L0,75V2.7l.97,1.46c.29.43.76.67,1.25.67.29,0,.57-.08.83-.25.69-.46.88-1.39.42-2.08L1.8,0h48.2ZM13.47,17.5l-4.44-6.67c-.46-.69-1.39-.88-2.08-.42-.69.46-.88,1.39-.42,2.08l4.44,6.67c.29.43.76.67,1.25.67.29,0,.57-.08.83-.25.69-.46.88-1.39.42-2.08ZM23.47,32.5l-4.44-6.67c-.46-.69-1.39-.88-2.08-.42-.69.46-.88,1.39-.42,2.08l4.44,6.67c.29.43.76.67,1.25.67.29,0,.57-.08.83-.25.69-.46.88-1.39.42-2.08Z" fill="#1e5783" stroke-width="0"/>
        <path d="M100,75L50,0h48.2l-1.66,2.5c-.46.69-.27,1.62.42,2.08.69.46,1.62.27,2.08-.42l.97-1.46.97,1.46c.29.43.76.67,1.25.67.29,0,.57-.08.83-.25.69-.46.88-1.39.42-2.08l-1.66-2.5h48.2l-50,75ZM116.53,27.5l4.44,6.67c.29.43.76.67,1.25.67.29,0,.57-.08.83-.25.69-.46.88-1.39.42-2.08l-4.44-6.67c-.46-.69-1.39-.88-2.08-.42-.69.46-.88,1.39-.42,2.08ZM106.53,12.49l4.44,6.67c.29.43.76.67,1.25.67.29,0,.57-.08.83-.25.69-.46.88-1.39.42-2.08l-4.44-6.67c-.46-.69-1.39-.88-2.08-.42-.69.46-.88,1.39-.42,2.08ZM83.06,25.42c-.69-.46-1.62-.27-2.08.42l-4.44,6.67c-.46.69-.27,1.62.42,2.08.26.17.54.25.83.25.48,0,.96-.23,1.25-.67l4.44-6.67c.46-.69.27-1.62-.42-2.08ZM93.06,10.41c-.69-.46-1.62-.27-2.08.42l-4.44,6.67c-.46.69-.27,1.62.42,2.08.26.17.54.25.83.25.48,0,.96-.23,1.25-.67l4.44-6.67c.46-.69.27-1.62-.42-2.08Z" fill="#1e5783" stroke-width="0"/>
        <path d="M198.2,300h-48.2l50-75v72.3l-.97-1.46c-.46-.69-1.39-.88-2.08-.42-.69.46-.88,1.39-.42,2.08l1.66,2.5ZM183.47,272.5l-4.44-6.67c-.46-.69-1.39-.88-2.08-.42-.69.46-.88,1.39-.42,2.08l4.44,6.67c.29.43.76.67,1.25.67.29,0,.57-.08.83-.25.69-.46.88-1.39.42-2.08ZM193.47,287.51l-4.44-6.67c-.46-.69-1.39-.88-2.08-.42-.69.46-.88,1.39-.42,2.08l4.44,6.67c.29.43.76.67,1.25.67.29,0,.57-.08.83-.25.69-.46.88-1.39.42-2.08Z" fill="#1e5783" stroke-width="0"/>
        <path d="M100,225l50,75h-48.2l1.66-2.5c.46-.69.27-1.62-.42-2.08-.69-.46-1.62-.27-2.08.42l-.97,1.46-.97-1.46c-.46-.69-1.39-.88-2.08-.42-.69.46-.88,1.39-.42,2.08l1.66,2.5h-48.2l50-75ZM83.47,272.5l-4.44-6.67c-.46-.69-1.39-.88-2.08-.42-.69.46-.88,1.39-.42,2.08l4.44,6.67c.29.43.76.67,1.25.67.29,0,.57-.08.83-.25.69-.46.88-1.39.42-2.08ZM93.47,287.51l-4.44-6.67c-.46-.69-1.39-.88-2.08-.42-.69.46-.88,1.39-.42,2.08l4.44,6.67c.29.43.76.67,1.25.67.29,0,.57-.08.83-.25.69-.46.88-1.39.42-2.08ZM116.94,274.58c.26.17.54.25.83.25.48,0,.96-.23,1.25-.67l4.44-6.67c.46-.69.27-1.62-.42-2.08-.69-.46-1.62-.27-2.08.42l-4.44,6.67c-.46.69-.27,1.62.42,2.08ZM106.94,289.59c.26.17.54.25.83.25.48,0,.96-.23,1.25-.67l4.44-6.67c.46-.69.27-1.62-.42-2.08-.69-.46-1.62-.27-2.08.42l-4.44,6.67c-.46.69-.27,1.62.42,2.08Z" fill="#1e5783" stroke-width="0"/>
        <path d="M50,150L0,75,50,0l50,75-50,75ZM66.95,49.58c.26.17.54.25.83.25.48,0,.96-.23,1.25-.67l4.44-6.67c.46-.69.27-1.62-.42-2.08-.69-.46-1.62-.27-2.08.42l-4.44,6.67c-.46.69-.27,1.62.42,2.08ZM66.53,102.5l4.44,6.67c.29.43.76.67,1.25.67.29,0,.57-.08.83-.25.69-.46.88-1.39.42-2.08l-4.44-6.67c-.46-.69-1.39-.88-2.08-.42-.69.46-.88,1.39-.42,2.08ZM56.95,64.58c.26.17.54.25.83.25.48,0,.96-.23,1.25-.67l4.44-6.67c.46-.69.27-1.62-.42-2.08-.69-.46-1.62-.27-2.08.42l-4.44,6.67c-.46.69-.27,1.62.42,2.08ZM56.53,87.5l4.44,6.67c.29.43.76.67,1.25.67.29,0,.57-.08.83-.25.69-.46.88-1.39.42-2.08l-4.44-6.67c-.46-.69-1.39-.88-2.08-.42-.69.46-.88,1.39-.42,2.08ZM33.05,100.42c-.69-.46-1.62-.27-2.08.42l-4.44,6.67c-.46.69-.27,1.62.42,2.08.26.17.54.25.83.25.48,0,.96-.23,1.25-.67l4.44-6.67c.46-.69.27-1.62-.42-2.08ZM33.47,47.5l-4.44-6.67c-.46-.69-1.39-.88-2.08-.42-.69.46-.88,1.39-.42,2.08l4.44,6.67c.29.43.76.67,1.25.67.29,0,.57-.08.83-.25.69-.46.88-1.39.42-2.08ZM43.05,85.42c-.69-.46-1.62-.27-2.08.42l-4.44,6.67c-.46.69-.27,1.62.42,2.08.26.17.54.25.83.25.48,0,.96-.23,1.25-.67l4.44-6.67c.46-.69.27-1.62-.42-2.08ZM43.47,62.5l-4.44-6.67c-.46-.69-1.39-.88-2.08-.42-.69.46-.88,1.39-.42,2.08l4.44,6.67c.29.43.76.67,1.25.67.29,0,.57-.08.83-.25.69-.46.88-1.39.42-2.08ZM49.03,79.17l.97-1.46.97,1.46c.29.43.76.67,1.25.67.29,0,.57-.08.83-.25.69-.46.88-1.39.42-2.08l-1.67-2.5,1.67-2.5c.46-.69.27-1.62-.42-2.08-.69-.46-1.62-.27-2.08.42l-.97,1.46-.97-1.46c-.46-.69-1.39-.88-2.08-.42-.69.46-.88,1.39-.42,2.08l1.67,2.5-1.67,2.5c-.46.69-.27,1.62.42,2.08.26.17.54.25.83.25.48,0,.96-.23,1.25-.67Z" fill="#ce0b30" stroke-width="0"/>
        <path d="M100,75L150,0l50,75-50,75-50-75ZM133.05,100.42c-.69-.46-1.62-.27-2.08.42l-4.44,6.67c-.46.69-.27,1.62.42,2.08.26.17.54.25.83.25.48,0,.96-.23,1.25-.67l4.44-6.67c.46-.69.27-1.62-.42-2.08ZM166.95,49.58c.26.17.54.25.83.25.48,0,.96-.23,1.25-.67l4.44-6.67c.46-.69.27-1.62-.42-2.08-.69-.46-1.62-.27-2.08.42l-4.44,6.67c-.46.69-.27,1.62.42,2.08ZM166.53,102.5l4.44,6.67c.29.43.76.67,1.25.67.29,0,.57-.08.83-.25.69-.46.88-1.39.42-2.08l-4.44-6.67c-.46-.69-1.39-.88-2.08-.42-.69.46-.88,1.39-.42,2.08ZM156.95,64.58c.26.17.54.25.83.25.48,0,.96-.23,1.25-.67l4.44-6.67c.46-.69.27-1.62-.42-2.08-.69-.46-1.62-.27-2.08.42l-4.44,6.67c-.46.69-.27,1.62.42,2.08ZM156.53,87.5l4.44,6.67c.29.43.76.67,1.25.67.29,0,.57-.08.83-.25.69-.46.88-1.39.42-2.08l-4.44-6.67c-.46-.69-1.39-.88-2.08-.42-.69.46-.88,1.39-.42,2.08ZM148.2,75l-1.67,2.5c-.46.69-.27,1.62.42,2.08.26.17.54.25.83.25.48,0,.96-.23,1.25-.67l.97-1.46.97,1.46c.29.43.76.67,1.25.67.29,0,.57-.08.83-.25.69-.46.88-1.39.42-2.08l-1.67-2.5,1.67-2.5c.46-.69.27-1.62-.42-2.08-.69-.46-1.62-.27-2.08.42l-.97,1.46-.97-1.46c-.46-.69-1.39-.88-2.08-.42-.69.46-.88,1.39-.42,2.08l1.67,2.5ZM136.53,57.5l4.44,6.67c.29.43.76.67,1.25.67.29,0,.57-.08.83-.25.69-.46.88-1.39.42-2.08l-4.44-6.67c-.46-.69-1.39-.88-2.08-.42-.69.46-.88,1.39-.42,2.08ZM136.94,94.58c.26.17.54.25.83.25.48,0,.96-.23,1.25-.67l4.44-6.67c.46-.69.27-1.62-.42-2.08-.69-.46-1.62-.27-2.08.42l-4.44,6.67c-.46.69-.27,1.62.42,2.08ZM126.53,42.5l4.44,6.67c.29.43.76.67,1.25.67.29,0,.57-.08.83-.25.69-.46.88-1.39.42-2.08l-4.44-6.67c-.46-.69-1.39-.88-2.08-.42-.69.46-.88,1.39-.42,2.08Z" fill="#d18d50" stroke-width="0"/>
        <path d="M200,225l-50,75-50-75,50-75,50,75ZM166.95,199.58c.26.17.54.25.83.25.48,0,.96-.23,1.25-.67l4.44-6.67c.46-.69.27-1.62-.42-2.08-.69-.46-1.62-.27-2.08.42l-4.44,6.67c-.46.69-.27,1.62.42,2.08ZM133.05,250.42c-.69-.46-1.62-.27-2.08.42l-4.44,6.67c-.46.69-.27,1.62.42,2.08.26.17.54.25.83.25.48,0,.96-.23,1.25-.67l4.44-6.67c.46-.69.27-1.62-.42-2.08ZM133.47,197.5l-4.44-6.67c-.46-.69-1.39-.88-2.08-.42-.69.46-.88,1.39-.42,2.08l4.44,6.67c.29.43.76.67,1.25.67.29,0,.57-.08.83-.25.69-.46.88-1.39.42-2.08ZM143.05,235.42c-.69-.46-1.62-.27-2.08.42l-4.44,6.67c-.46.69-.27,1.62.42,2.08.26.17.54.25.83.25.48,0,.96-.23,1.25-.67l4.44-6.67c.46-.69.27-1.62-.42-2.08ZM143.47,212.5l-4.44-6.67c-.46-.69-1.39-.88-2.08-.42-.69.46-.88,1.39-.42,2.08l4.44,6.67c.29.43.76.67,1.25.67.29,0,.57-.08.83-.25.69-.46.88-1.39.42-2.08ZM151.8,225l1.67-2.5c.46-.69.27-1.62-.42-2.08-.69-.46-1.62-.27-2.08.42l-.97,1.46-.97-1.46c-.46-.69-1.39-.88-2.08-.42-.69.46-.88,1.39-.42,2.08l1.67,2.5-1.67,2.5c-.46.69-.27,1.62.42,2.08.26.17.54.25.83.25.48,0,.96-.23,1.25-.67l.97-1.46.97,1.46c.29.43.76.67,1.25.67.29,0,.57-.08.83-.25.69-.46.88-1.39.42-2.08l-1.67-2.5ZM163.47,242.5l-4.44-6.67c-.46-.69-1.39-.88-2.08-.42-.69.46-.88,1.39-.42,2.08l4.44,6.67c.29.43.76.67,1.25.67.29,0,.57-.08.83-.25.69-.46.88-1.39.42-2.08ZM163.06,205.42c-.69-.46-1.62-.27-2.08.42l-4.44,6.67c-.46.69-.27,1.62.42,2.08.26.17.54.25.83.25.48,0,.96-.23,1.25-.67l4.44-6.67c.46-.69.27-1.62-.42-2.08ZM173.47,257.5l-4.44-6.67c-.46-.69-1.39-.88-2.08-.42-.69.46-.88,1.39-.42,2.08l4.44,6.67c.29.43.76.67,1.25.67.29,0,.57-.08.83-.25.69-.46.88-1.39.42-2.08Z" fill="#ce0b30" stroke-width="0"/>
        <path d="M100,225l-50,75L0,225l50-75,50,75ZM66.95,199.58c.26.17.54.25.83.25.48,0,.96-.23,1.25-.67l4.44-6.67c.46-.69.27-1.62-.42-2.08-.69-.46-1.62-.27-2.08.42l-4.44,6.67c-.46.69-.27,1.62.42,2.08ZM33.05,250.42c-.69-.46-1.62-.27-2.08.42l-4.44,6.67c-.46.69-.27,1.62.42,2.08.26.17.54.25.83.25.48,0,.96-.23,1.25-.67l4.44-6.67c.46-.69.27-1.62-.42-2.08ZM33.47,197.5l-4.44-6.67c-.46-.69-1.39-.88-2.08-.42-.69.46-.88,1.39-.42,2.08l4.44,6.67c.29.43.76.67,1.25.67.29,0,.57-.08.83-.25.69-.46.88-1.39.42-2.08ZM43.05,235.42c-.69-.46-1.62-.27-2.08.42l-4.44,6.67c-.46.69-.27,1.62.42,2.08.26.17.54.25.83.25.48,0,.96-.23,1.25-.67l4.44-6.67c.46-.69.27-1.62-.42-2.08ZM43.47,212.5l-4.44-6.67c-.46-.69-1.39-.88-2.08-.42-.69.46-.88,1.39-.42,2.08l4.44,6.67c.29.43.76.67,1.25.67.29,0,.57-.08.83-.25.69-.46.88-1.39.42-2.08ZM51.8,225l1.67-2.5c.46-.69.27-1.62-.42-2.08-.69-.46-1.62-.27-2.08.42l-.97,1.46-.97-1.46c-.46-.69-1.39-.88-2.08-.42-.69.46-.88,1.39-.42,2.08l1.67,2.5-1.67,2.5c-.46.69-.27,1.62.42,2.08.26.17.54.25.83.25.48,0,.96-.23,1.25-.67l.97-1.46.97,1.46c.29.43.76.67,1.25.67.29,0,.57-.08.83-.25.69-.46.88-1.39.42-2.08l-1.67-2.5ZM63.47,242.5l-4.44-6.67c-.46-.69-1.39-.88-2.08-.42-.69.46-.88,1.39-.42,2.08l4.44,6.67c.29.43.76.67,1.25.67.29,0,.57-.08.83-.25.69-.46.88-1.39.42-2.08ZM63.06,205.42c-.69-.46-1.62-.27-2.08.42l-4.44,6.67c-.46.69-.27,1.62.42,2.08.26.17.54.25.83.25.48,0,.96-.23,1.25-.67l4.44-6.67c.46-.69.27-1.62-.42-2.08ZM73.47,257.5l-4.44-6.67c-.46-.69-1.39-.88-2.08-.42-.69.46-.88,1.39-.42,2.08l4.44,6.67c.29.43.76.67,1.25.67.29,0,.57-.08.83-.25.69-.46.88-1.39.42-2.08Z" fill="#d18d50" stroke-width="0"/>
        <path d="M2.22,154.83c.29,0,.57-.08.83-.25.69-.46.88-1.39.42-2.08l-1.66-2.5,1.66-2.5c.46-.69.27-1.62-.42-2.08-.69-.46-1.62-.27-2.08.42l-.97,1.46v5.41l.97,1.46c.29.43.76.67,1.25.67Z" fill="#fbb03b" stroke-width="0"/>
        <path d="M9.02,160.83c-.46-.69-1.39-.88-2.08-.42-.69.46-.88,1.39-.42,2.08l4.44,6.67c.29.43.76.67,1.25.67.29,0,.57-.08.83-.25.69-.46.88-1.39.42-2.08l-4.44-6.67Z" fill="#fbb03b" stroke-width="0"/>
        <path d="M89.03,280.84c-.46-.69-1.39-.88-2.08-.42-.69.46-.88,1.39-.42,2.08l4.44,6.67c.29.43.76.67,1.25.67.29,0,.57-.08.83-.25.69-.46.88-1.39.42-2.08l-4.44-6.67Z" fill="#fbb03b" stroke-width="0"/>
        <path d="M79.03,265.84c-.46-.69-1.39-.88-2.08-.42-.69.46-.88,1.39-.42,2.08l4.44,6.67c.29.43.76.67,1.25.67.29,0,.57-.08.83-.25.69-.46.88-1.39.42-2.08l-4.44-6.67Z" fill="#fbb03b" stroke-width="0"/>
        <path d="M19.02,175.83c-.46-.69-1.39-.88-2.08-.42-.69.46-.88,1.39-.42,2.08l4.44,6.67c.29.43.76.67,1.25.67.29,0,.57-.08.83-.25.69-.46.88-1.39.42-2.08l-4.44-6.67Z" fill="#fbb03b" stroke-width="0"/>
        <path d="M49.03,220.83c-.46-.69-1.39-.88-2.08-.42-.69.46-.88,1.39-.42,2.08l1.67,2.5,1.8-2.7-.97-1.46Z" fill="#fbb03b" stroke-width="0"/>
        <path d="M69.03,250.84c-.46-.69-1.39-.88-2.08-.42-.69.46-.88,1.39-.42,2.08l4.44,6.67c.29.43.76.67,1.25.67.29,0,.57-.08.83-.25.69-.46.88-1.39.42-2.08l-4.44-6.67Z" fill="#fbb03b" stroke-width="0"/>
        <path d="M50.97,229.17c.29.43.76.67,1.25.67.29,0,.57-.08.83-.25.69-.46.88-1.39.42-2.08l-1.67-2.5-1.8,2.7.97,1.46Z" fill="#fbb03b" stroke-width="0"/>
        <path d="M59.03,235.84c-.46-.69-1.39-.88-2.08-.42-.69.46-.88,1.39-.42,2.08l4.44,6.67c.29.43.76.67,1.25.67.29,0,.57-.08.83-.25.69-.46.88-1.39.42-2.08l-4.44-6.67Z" fill="#fbb03b" stroke-width="0"/>
        <path d="M29.02,190.83c-.46-.69-1.39-.88-2.08-.42-.69.46-.88,1.39-.42,2.08l4.44,6.67c.29.43.76.67,1.25.67.29,0,.57-.08.83-.25.69-.46.88-1.39.42-2.08l-4.44-6.67Z" fill="#fbb03b" stroke-width="0"/>
        <path d="M39.02,205.83c-.46-.69-1.39-.88-2.08-.42-.69.46-.88,1.39-.42,2.08l4.44,6.67c.29.43.76.67,1.25.67.29,0,.57-.08.83-.25.69-.46.88-1.39.42-2.08l-4.44-6.67Z" fill="#fbb03b" stroke-width="0"/>
        <path d="M103.05,295.42c-.69-.46-1.62-.27-2.08.42l-.97,1.46-.97-1.46c-.46-.69-1.39-.88-2.08-.42-.69.46-.88,1.39-.42,2.08l1.66,2.5h3.61l1.66-2.5c.46-.69.27-1.62-.42-2.08Z" fill="#fbb03b" stroke-width="0"/>
        <path d="M193.06,160.41c-.69-.46-1.62-.27-2.08.42l-4.44,6.67c-.46.69-.27,1.62.42,2.08.26.17.54.25.83.25.48,0,.96-.23,1.25-.67l4.44-6.67c.46-.69.27-1.62-.42-2.08Z" fill="#fbb03b" stroke-width="0"/>
        <path d="M106.94,289.59c.26.17.54.25.83.25.48,0,.96-.23,1.25-.67l4.44-6.67c.46-.69.27-1.62-.42-2.08-.69-.46-1.62-.27-2.08.42l-4.44,6.67c-.46.69-.27,1.62.42,2.08Z" fill="#fbb03b" stroke-width="0"/>
        <path d="M116.94,274.58c.26.17.54.25.83.25.48,0,.96-.23,1.25-.67l4.44-6.67c.46-.69.27-1.62-.42-2.08-.69-.46-1.62-.27-2.08.42l-4.44,6.67c-.46.69-.27,1.62.42,2.08Z" fill="#fbb03b" stroke-width="0"/>
        <path d="M183.06,175.42c-.69-.46-1.62-.27-2.08.42l-4.44,6.67c-.46.69-.27,1.62.42,2.08.26.17.54.25.83.25.48,0,.96-.23,1.25-.67l4.44-6.67c.46-.69.27-1.62-.42-2.08Z" fill="#fbb03b" stroke-width="0"/>
        <path d="M133.05,250.42c-.69-.46-1.62-.27-2.08.42l-4.44,6.67c-.46.69-.27,1.62.42,2.08.26.17.54.25.83.25.48,0,.96-.23,1.25-.67l4.44-6.67c.46-.69.27-1.62-.42-2.08Z" fill="#fbb03b" stroke-width="0"/>
        <path d="M166.95,199.58c.26.17.54.25.83.25.48,0,.96-.23,1.25-.67l4.44-6.67c.46-.69.27-1.62-.42-2.08-.69-.46-1.62-.27-2.08.42l-4.44,6.67c-.46.69-.27,1.62.42,2.08Z" fill="#fbb03b" stroke-width="0"/>
        <path d="M146.53,227.5c-.46.69-.27,1.62.42,2.08.26.17.54.25.83.25.48,0,.96-.23,1.25-.67l.97-1.46-1.8-2.7-1.67,2.5Z" fill="#fbb03b" stroke-width="0"/>
        <path d="M143.05,235.42c-.69-.46-1.62-.27-2.08.42l-4.44,6.67c-.46.69-.27,1.62.42,2.08.26.17.54.25.83.25.48,0,.96-.23,1.25-.67l4.44-6.67c.46-.69.27-1.62-.42-2.08Z" fill="#fbb03b" stroke-width="0"/>
        <path d="M153.05,220.42c-.69-.46-1.62-.27-2.08.42l-.97,1.46,1.8,2.7,1.67-2.5c.46-.69.27-1.62-.42-2.08Z" fill="#fbb03b" stroke-width="0"/>
        <path d="M163.06,205.42c-.69-.46-1.62-.27-2.08.42l-4.44,6.67c-.46.69-.27,1.62.42,2.08.26.17.54.25.83.25.48,0,.96-.23,1.25-.67l4.44-6.67c.46-.69.27-1.62-.42-2.08Z" fill="#fbb03b" stroke-width="0"/>
        <path d="M196.95,145.42c-.69.46-.88,1.39-.42,2.08l1.66,2.5-1.66,2.5c-.46.69-.27,1.62.42,2.08.26.17.54.25.83.25.48,0,.96-.23,1.25-.67l.97-1.46v-5.41l-.97-1.46c-.46-.69-1.39-.88-2.08-.42Z" fill="#fbb03b" stroke-width="0"/>
        <path d="M180.98,124.17c.29.43.76.67,1.25.67.29,0,.57-.08.83-.25.69-.46.88-1.39.42-2.08l-4.44-6.67c-.46-.69-1.39-.88-2.08-.42-.69.46-.88,1.39-.42,2.08l4.44,6.67Z" fill="#fbb03b" stroke-width="0"/>
        <path d="M190.98,139.17c.29.43.76.67,1.25.67.29,0,.57-.08.83-.25.69-.46.88-1.39.42-2.08l-4.44-6.67c-.46-.69-1.39-.88-2.08-.42-.69.46-.88,1.39-.42,2.08l4.44,6.67Z" fill="#fbb03b" stroke-width="0"/>
        <path d="M120.97,34.16c.29.43.76.67,1.25.67.29,0,.57-.08.83-.25.69-.46.88-1.39.42-2.08l-4.44-6.67c-.46-.69-1.39-.88-2.08-.42-.69.46-.88,1.39-.42,2.08l4.44,6.67Z" fill="#fbb03b" stroke-width="0"/>
        <path d="M110.97,19.16c.29.43.76.67,1.25.67.29,0,.57-.08.83-.25.69-.46.88-1.39.42-2.08l-4.44-6.67c-.46-.69-1.39-.88-2.08-.42-.69.46-.88,1.39-.42,2.08l4.44,6.67Z" fill="#fbb03b" stroke-width="0"/>
        <path d="M149.03,70.83c-.46-.69-1.39-.88-2.08-.42-.69.46-.88,1.39-.42,2.08l1.67,2.5,1.8-2.7-.97-1.46Z" fill="#fbb03b" stroke-width="0"/>
        <path d="M150.97,79.17c.29.43.76.67,1.25.67.29,0,.57-.08.83-.25.69-.46.88-1.39.42-2.08l-1.67-2.5-1.8,2.7.97,1.46Z" fill="#fbb03b" stroke-width="0"/>
        <path d="M160.98,94.17c.29.43.76.67,1.25.67.29,0,.57-.08.83-.25.69-.46.88-1.39.42-2.08l-4.44-6.67c-.46-.69-1.39-.88-2.08-.42-.69.46-.88,1.39-.42,2.08l4.44,6.67Z" fill="#fbb03b" stroke-width="0"/>
        <path d="M170.98,109.17c.29.43.76.67,1.25.67.29,0,.57-.08.83-.25.69-.46.88-1.39.42-2.08l-4.44-6.67c-.46-.69-1.39-.88-2.08-.42-.69.46-.88,1.39-.42,2.08l4.44,6.67Z" fill="#fbb03b" stroke-width="0"/>
        <path d="M140.97,64.16c.29.43.76.67,1.25.67.29,0,.57-.08.83-.25.69-.46.88-1.39.42-2.08l-4.44-6.67c-.46-.69-1.39-.88-2.08-.42-.69.46-.88,1.39-.42,2.08l4.44,6.67Z" fill="#fbb03b" stroke-width="0"/>
        <path d="M130.97,49.16c.29.43.76.67,1.25.67.29,0,.57-.08.83-.25.69-.46.88-1.39.42-2.08l-4.44-6.67c-.46-.69-1.39-.88-2.08-.42-.69.46-.88,1.39-.42,2.08l4.44,6.67Z" fill="#fbb03b" stroke-width="0"/>
        <path d="M96.95,4.58c.69.46,1.62.27,2.08-.42l.97-1.46.97,1.46c.29.43.76.67,1.25.67.29,0,.57-.08.83-.25.69-.46.88-1.39.42-2.08l-1.66-2.5h-3.61l-1.66,2.5c-.46.69-.27,1.62.42,2.08Z" fill="#fbb03b" stroke-width="0"/>
        <path d="M6.94,139.59c.26.17.54.25.83.25.48,0,.96-.23,1.25-.67l4.44-6.67c.46-.69.27-1.62-.42-2.08-.69-.46-1.62-.27-2.08.42l-4.44,6.67c-.46.69-.27,1.62.42,2.08Z" fill="#fbb03b" stroke-width="0"/>
        <path d="M16.94,124.58c.26.17.54.25.83.25.48,0,.96-.23,1.25-.67l4.44-6.67c.46-.69.27-1.62-.42-2.08-.69-.46-1.62-.27-2.08.42l-4.44,6.67c-.46.69-.27,1.62.42,2.08Z" fill="#fbb03b" stroke-width="0"/>
        <path d="M93.06,10.41c-.69-.46-1.62-.27-2.08.42l-4.44,6.67c-.46.69-.27,1.62.42,2.08.26.17.54.25.83.25.48,0,.96-.23,1.25-.67l4.44-6.67c.46-.69.27-1.62-.42-2.08Z" fill="#fbb03b" stroke-width="0"/>
        <path d="M83.06,25.42c-.69-.46-1.62-.27-2.08.42l-4.44,6.67c-.46.69-.27,1.62.42,2.08.26.17.54.25.83.25.48,0,.96-.23,1.25-.67l4.44-6.67c.46-.69.27-1.62-.42-2.08Z" fill="#fbb03b" stroke-width="0"/>
        <path d="M56.95,64.58c.26.17.54.25.83.25.48,0,.96-.23,1.25-.67l4.44-6.67c.46-.69.27-1.62-.42-2.08-.69-.46-1.62-.27-2.08.42l-4.44,6.67c-.46.69-.27,1.62.42,2.08Z" fill="#fbb03b" stroke-width="0"/>
        <path d="M66.95,49.58c.26.17.54.25.83.25.48,0,.96-.23,1.25-.67l4.44-6.67c.46-.69.27-1.62-.42-2.08-.69-.46-1.62-.27-2.08.42l-4.44,6.67c-.46.69-.27,1.62.42,2.08Z" fill="#fbb03b" stroke-width="0"/>
        <path d="M43.05,85.42c-.69-.46-1.62-.27-2.08.42l-4.44,6.67c-.46.69-.27,1.62.42,2.08.26.17.54.25.83.25.48,0,.96-.23,1.25-.67l4.44-6.67c.46-.69.27-1.62-.42-2.08Z" fill="#fbb03b" stroke-width="0"/>
        <path d="M48.2,75l-1.67,2.5c-.46.69-.27,1.62.42,2.08.26.17.54.25.83.25.48,0,.96-.23,1.25-.67l.97-1.46-1.8-2.7Z" fill="#fbb03b" stroke-width="0"/>
        <path d="M53.47,72.5c.46-.69.27-1.62-.42-2.08-.69-.46-1.62-.27-2.08.42l-.97,1.46,1.8,2.7,1.67-2.5Z" fill="#fbb03b" stroke-width="0"/>
        <path d="M33.05,100.42c-.69-.46-1.62-.27-2.08.42l-4.44,6.67c-.46.69-.27,1.62.42,2.08.26.17.54.25.83.25.48,0,.96-.23,1.25-.67l4.44-6.67c.46-.69.27-1.62-.42-2.08Z" fill="#fbb03b" stroke-width="0"/>
        <path d="M101.25,149.17c.34.5.34,1.16,0,1.66l-1.25,1.87.97,1.46c.29.43.76.67,1.25.67.29,0,.57-.08.83-.25.69-.46.88-1.39.42-2.08l-1.66-2.5,1.66-2.5c.46-.69.27-1.62-.42-2.08-.69-.46-1.62-.27-2.08.42l-.97,1.46,1.25,1.87Z" fill="#fbb03b" stroke-width="0"/>
        <path d="M120.97,184.16c.29.43.76.67,1.25.67.29,0,.57-.08.83-.25.69-.46.88-1.39.42-2.08l-4.44-6.67c-.46-.69-1.39-.88-2.08-.42-.69.46-.88,1.39-.42,2.08l4.44,6.67Z" fill="#fbb03b" stroke-width="0"/>
        <path d="M109.02,160.83c-.46-.69-1.39-.88-2.08-.42-.69.46-.88,1.39-.42,2.08l4.44,6.67c.29.43.76.67,1.25.67.29,0,.57-.08.83-.25.69-.46.88-1.39.42-2.08l-4.44-6.67Z" fill="#fbb03b" stroke-width="0"/>
        <path d="M179.03,265.84c-.46-.69-1.39-.88-2.08-.42-.69.46-.88,1.39-.42,2.08l4.44,6.67c.29.43.76.67,1.25.67.29,0,.57-.08.83-.25.69-.46.88-1.39.42-2.08l-4.44-6.67Z" fill="#fbb03b" stroke-width="0"/>
        <path d="M189.03,280.84c-.46-.69-1.39-.88-2.08-.42-.69.46-.88,1.39-.42,2.08l4.44,6.67c.29.43.76.67,1.25.67.29,0,.57-.08.83-.25.69-.46.88-1.39.42-2.08l-4.44-6.67Z" fill="#fbb03b" stroke-width="0"/>
        <path d="M139.02,205.83c-.46-.69-1.39-.88-2.08-.42-.69.46-.88,1.39-.42,2.08l4.44,6.67c.29.43.76.67,1.25.67.29,0,.57-.08.83-.25.69-.46.88-1.39.42-2.08l-4.44-6.67Z" fill="#fbb03b" stroke-width="0"/>
        <path d="M149.03,220.83c-.46-.69-1.39-.88-2.08-.42-.69.46-.88,1.39-.42,2.08l1.67,2.5,1.8,2.7.97,1.46c.29.43.76.67,1.25.67.29,0,.57-.08.83-.25.69-.46.88-1.39.42-2.08l-1.67-2.5-1.8-2.7-.97-1.46Z" fill="#fbb03b" stroke-width="0"/>
        <path d="M159.03,235.84c-.46-.69-1.39-.88-2.08-.42-.69.46-.88,1.39-.42,2.08l4.44,6.67c.29.43.76.67,1.25.67.29,0,.57-.08.83-.25.69-.46.88-1.39.42-2.08l-4.44-6.67Z" fill="#fbb03b" stroke-width="0"/>
        <path d="M129.02,190.83c-.46-.69-1.39-.88-2.08-.42-.69.46-.88,1.39-.42,2.08l4.44,6.67c.29.43.76.67,1.25.67.29,0,.57-.08.83-.25.69-.46.88-1.39.42-2.08l-4.44-6.67Z" fill="#fbb03b" stroke-width="0"/>
        <path d="M169.03,250.84c-.46-.69-1.39-.88-2.08-.42-.69.46-.88,1.39-.42,2.08l4.44,6.67c.29.43.76.67,1.25.67.29,0,.57-.08.83-.25.69-.46.88-1.39.42-2.08l-4.44-6.67Z" fill="#fbb03b" stroke-width="0"/>
        <path d="M196.95,295.42c-.69.46-.88,1.39-.42,2.08l1.66,2.5h1.8v-2.7l-.97-1.46c-.46-.69-1.39-.88-2.08-.42Z" fill="#fbb03b" stroke-width="0"/>
        <path d="M196.95,4.58c.69.46,1.62.27,2.08-.42l.97-1.46V0h-1.8l-1.66,2.5c-.46.69-.27,1.62.42,2.08Z" fill="#fbb03b" stroke-width="0"/>
        <path d="M106.94,139.59c.26.17.54.25.83.25.48,0,.96-.23,1.25-.67l4.44-6.67c.46-.69.27-1.62-.42-2.08-.69-.46-1.62-.27-2.08.42l-4.44,6.67c-.46.69-.27,1.62.42,2.08Z" fill="#fbb03b" stroke-width="0"/>
        <path d="M183.06,25.42c-.69-.46-1.62-.27-2.08.42l-4.44,6.67c-.46.69-.27,1.62.42,2.08.26.17.54.25.83.25.48,0,.96-.23,1.25-.67l4.44-6.67c.46-.69.27-1.62-.42-2.08Z" fill="#fbb03b" stroke-width="0"/>
        <path d="M116.94,124.58c.26.17.54.25.83.25.48,0,.96-.23,1.25-.67l4.44-6.67c.46-.69.27-1.62-.42-2.08-.69-.46-1.62-.27-2.08.42l-4.44,6.67c-.46.69-.27,1.62.42,2.08Z" fill="#fbb03b" stroke-width="0"/>
        <path d="M193.06,10.41c-.69-.46-1.62-.27-2.08.42l-4.44,6.67c-.46.69-.27,1.62.42,2.08.26.17.54.25.83.25.48,0,.96-.23,1.25-.67l4.44-6.67c.46-.69.27-1.62-.42-2.08Z" fill="#fbb03b" stroke-width="0"/>
        <path d="M133.05,100.42c-.69-.46-1.62-.27-2.08.42l-4.44,6.67c-.46.69-.27,1.62.42,2.08.26.17.54.25.83.25.48,0,.96-.23,1.25-.67l4.44-6.67c.46-.69.27-1.62-.42-2.08Z" fill="#fbb03b" stroke-width="0"/>
        <path d="M166.95,49.58c.26.17.54.25.83.25.48,0,.96-.23,1.25-.67l4.44-6.67c.46-.69.27-1.62-.42-2.08-.69-.46-1.62-.27-2.08.42l-4.44,6.67c-.46.69-.27,1.62.42,2.08Z" fill="#fbb03b" stroke-width="0"/>
        <path d="M146.95,79.58c.26.17.54.25.83.25.48,0,.96-.23,1.25-.67l.97-1.46,1.8-2.7,1.67-2.5c.46-.69.27-1.62-.42-2.08-.69-.46-1.62-.27-2.08.42l-.97,1.46-1.8,2.7-1.67,2.5c-.46.69-.27,1.62.42,2.08Z" fill="#fbb03b" stroke-width="0"/>
        <path d="M156.95,64.58c.26.17.54.25.83.25.48,0,.96-.23,1.25-.67l4.44-6.67c.46-.69.27-1.62-.42-2.08-.69-.46-1.62-.27-2.08.42l-4.44,6.67c-.46.69-.27,1.62.42,2.08Z" fill="#fbb03b" stroke-width="0"/>
        <path d="M136.94,94.58c.26.17.54.25.83.25.48,0,.96-.23,1.25-.67l4.44-6.67c.46-.69.27-1.62-.42-2.08-.69-.46-1.62-.27-2.08.42l-4.44,6.67c-.46.69-.27,1.62.42,2.08Z" fill="#fbb03b" stroke-width="0"/>
        <path d="M3.05,295.42c-.69-.46-1.62-.27-2.08.42l-.97,1.46v2.7h1.8l1.66-2.5c.46-.69.27-1.62-.42-2.08Z" fill="#fbb03b" stroke-width="0"/>
        <path d="M93.06,160.41c-.69-.46-1.62-.27-2.08.42l-4.44,6.67c-.46.69-.27,1.62.42,2.08.26.17.54.25.83.25.48,0,.96-.23,1.25-.67l4.44-6.67c.46-.69.27-1.62-.42-2.08Z" fill="#fbb03b" stroke-width="0"/>
        <path d="M83.06,175.42c-.69-.46-1.62-.27-2.08.42l-4.44,6.67c-.46.69-.27,1.62.42,2.08.26.17.54.25.83.25.48,0,.96-.23,1.25-.67l4.44-6.67c.46-.69.27-1.62-.42-2.08Z" fill="#fbb03b" stroke-width="0"/>
        <path d="M16.94,274.58c.26.17.54.25.83.25.48,0,.96-.23,1.25-.67l4.44-6.67c.46-.69.27-1.62-.42-2.08-.69-.46-1.62-.27-2.08.42l-4.44,6.67c-.46.69-.27,1.62.42,2.08Z" fill="#fbb03b" stroke-width="0"/>
        <path d="M6.94,289.59c.26.17.54.25.83.25.48,0,.96-.23,1.25-.67l4.44-6.67c.46-.69.27-1.62-.42-2.08-.69-.46-1.62-.27-2.08.42l-4.44,6.67c-.46.69-.27,1.62.42,2.08Z" fill="#fbb03b" stroke-width="0"/>
        <path d="M66.95,199.58c.26.17.54.25.83.25.48,0,.96-.23,1.25-.67l4.44-6.67c.46-.69.27-1.62-.42-2.08-.69-.46-1.62-.27-2.08.42l-4.44,6.67c-.46.69-.27,1.62.42,2.08Z" fill="#fbb03b" stroke-width="0"/>
        <path d="M33.05,250.42c-.69-.46-1.62-.27-2.08.42l-4.44,6.67c-.46.69-.27,1.62.42,2.08.26.17.54.25.83.25.48,0,.96-.23,1.25-.67l4.44-6.67c.46-.69.27-1.62-.42-2.08Z" fill="#fbb03b" stroke-width="0"/>
        <path d="M43.05,235.42c-.69-.46-1.62-.27-2.08.42l-4.44,6.67c-.46.69-.27,1.62.42,2.08.26.17.54.25.83.25.48,0,.96-.23,1.25-.67l4.44-6.67c.46-.69.27-1.62-.42-2.08Z" fill="#fbb03b" stroke-width="0"/>
        <path d="M63.06,205.42c-.69-.46-1.62-.27-2.08.42l-4.44,6.67c-.46.69-.27,1.62.42,2.08.26.17.54.25.83.25.48,0,.96-.23,1.25-.67l4.44-6.67c.46-.69.27-1.62-.42-2.08Z" fill="#fbb03b" stroke-width="0"/>
        <path d="M53.05,220.42c-.69-.46-1.62-.27-2.08.42l-.97,1.46-1.8,2.7-1.67,2.5c-.46.69-.27,1.62.42,2.08.26.17.54.25.83.25.48,0,.96-.23,1.25-.67l.97-1.46,1.8-2.7,1.67-2.5c.46-.69.27-1.62-.42-2.08Z" fill="#fbb03b" stroke-width="0"/>
        <path d="M101.25,149.17l-1.25-1.87-.97-1.46c-.46-.69-1.39-.88-2.08-.42s-.88,1.39-.42,2.08l1.66,2.5-1.66,2.5c-.46.69-.27,1.62.42,2.08.26.17.54.25.83.25.48,0,.96-.23,1.25-.67l.97-1.46,1.25-1.87c.34-.5.34-1.16,0-1.66Z" fill="#fbb03b" stroke-width="0"/>
        <path d="M9.02,10.83c-.46-.69-1.39-.88-2.08-.42-.69.46-.88,1.39-.42,2.08l4.44,6.67c.29.43.76.67,1.25.67.29,0,.57-.08.83-.25.69-.46.88-1.39.42-2.08l-4.44-6.67Z" fill="#fbb03b" stroke-width="0"/>
        <path d="M23.47,32.5l-4.44-6.67c-.46-.69-1.39-.88-2.08-.42-.69.46-.88,1.39-.42,2.08l4.44,6.67c.29.43.76.67,1.25.67.29,0,.57-.08.83-.25.69-.46.88-1.39.42-2.08Z" fill="#fbb03b" stroke-width="0"/>
        <path d="M90.98,139.17c.29.43.76.67,1.25.67.29,0,.57-.08.83-.25.69-.46.88-1.39.42-2.08l-4.44-6.67c-.46-.69-1.39-.88-2.08-.42-.69.46-.88,1.39-.42,2.08l4.44,6.67Z" fill="#fbb03b" stroke-width="0"/>
        <path d="M79.03,115.84c-.46-.69-1.39-.88-2.08-.42-.69.46-.88,1.39-.42,2.08l4.44,6.67c.29.43.76.67,1.25.67.29,0,.57-.08.83-.25.69-.46.88-1.39.42-2.08l-4.44-6.67Z" fill="#fbb03b" stroke-width="0"/>
        <path d="M39.02,55.83c-.46-.69-1.39-.88-2.08-.42-.69.46-.88,1.39-.42,2.08l4.44,6.67c.29.43.76.67,1.25.67.29,0,.57-.08.83-.25.69-.46.88-1.39.42-2.08l-4.44-6.67Z" fill="#fbb03b" stroke-width="0"/>
        <path d="M50.97,79.17c.29.43.76.67,1.25.67.29,0,.57-.08.83-.25.69-.46.88-1.39.42-2.08l-1.67-2.5-1.8-2.7-.97-1.46c-.46-.69-1.39-.88-2.08-.42-.69.46-.88,1.39-.42,2.08l1.67,2.5,1.8,2.7.97,1.46Z" fill="#fbb03b" stroke-width="0"/>
        <path d="M60.98,94.17c.29.43.76.67,1.25.67.29,0,.57-.08.83-.25.69-.46.88-1.39.42-2.08l-4.44-6.67c-.46-.69-1.39-.88-2.08-.42-.69.46-.88,1.39-.42,2.08l4.44,6.67Z" fill="#fbb03b" stroke-width="0"/>
        <path d="M70.98,109.17c.29.43.76.67,1.25.67.29,0,.57-.08.83-.25.69-.46.88-1.39.42-2.08l-4.44-6.67c-.46-.69-1.39-.88-2.08-.42-.69.46-.88,1.39-.42,2.08l4.44,6.67Z" fill="#fbb03b" stroke-width="0"/>
        <path d="M29.02,40.83c-.46-.69-1.39-.88-2.08-.42-.69.46-.88,1.39-.42,2.08l4.44,6.67c.29.43.76.67,1.25.67.29,0,.57-.08.83-.25.69-.46.88-1.39.42-2.08l-4.44-6.67Z" fill="#fbb03b" stroke-width="0"/>
        <path d="M2.22,4.83c.29,0,.57-.08.83-.25.69-.46.88-1.39.42-2.08L1.8,0H0v2.7l.97,1.46c.29.43.76.67,1.25.67Z" fill="#fbb03b" stroke-width="0"/>
      </g>
    </pattern>
  </defs>
  <rect width="1950" height="1050" fill="url(#Argyle)" stroke-width="0"/>
</svg>