<?xml version="1.0" encoding="UTF-8"?>
<svg id="_レイヤー_1" data-name="レイヤー 1" xmlns="http://www.w3.org/2000/svg" viewBox="0 0 1875 900">
  <g>
    <ellipse cx="345" cy="180" rx="119.5" ry="104.5" fill="#fbb03b" stroke-width="0"/>
    <path d="M345,76c65.62,0,119,46.65,119,104s-53.38,104-119,104-119-46.65-119-104,53.38-104,119-104M345,75c-66.27,0-120,47.01-120,105s53.73,105,120,105,120-47.01,120-105-53.73-105-120-105h0Z" stroke-width="0"/>
  </g>
  <g>
    <ellipse cx="855" cy="405" rx="179.5" ry="134.5" fill="#fbb03b" stroke-width="0"/>
    <path d="M855,271c47.86,0,92.85,13.97,126.68,39.34,33.74,25.3,52.32,58.92,52.32,94.66s-18.58,69.35-52.32,94.66c-33.83,25.37-78.81,39.34-126.68,39.34s-92.85-13.97-126.68-39.34c-33.74-25.3-52.32-58.92-52.32-94.66s18.58-69.35,52.32-94.66c33.83-25.37,78.81-39.34,126.68-39.34M855,270c-99.41,0-180,60.44-180,135s80.59,135,180,135,180-60.44,180-135-80.59-135-180-135h0Z" stroke-width="0"/>
  </g>
  <g>
    <ellipse cx="532.5" cy="712.5" rx="97" ry="67" fill="#fbb03b" stroke-width="0"/>
    <path d="M532.5,646c53.21,0,96.5,29.83,96.5,66.5s-43.29,66.5-96.5,66.5-96.5-29.83-96.5-66.5,43.29-66.5,96.5-66.5M532.5,645c-53.85,0-97.5,30.22-97.5,67.5s43.65,67.5,97.5,67.5,97.5-30.22,97.5-67.5-43.65-67.5-97.5-67.5h0Z" stroke-width="0"/>
  </g>
  <g>
    <ellipse cx="1425" cy="337.5" rx="179.5" ry="127" fill="#f7931e" stroke-width="0"/>
    <path d="M1425,211c47.87,0,92.87,13.2,126.7,37.16,33.73,23.89,52.3,55.62,52.3,89.34s-18.57,65.45-52.3,89.34c-33.83,23.96-78.83,37.16-126.7,37.16s-92.87-13.2-126.7-37.16c-33.73-23.89-52.3-55.62-52.3-89.34s18.57-65.45,52.3-89.34c33.83-23.96,78.83-37.16,126.7-37.16M1425,210c-99.41,0-180,57.08-180,127.5s80.59,127.5,180,127.5,180-57.08,180-127.5-80.59-127.5-180-127.5h0Z" stroke-width="0"/>
  </g>
  <g>
    <ellipse cx="1792.5" cy="810" rx="82" ry="89.5" fill="#f7931e" stroke-width="0"/>
    <path d="M1792.5,721c44.94,0,81.5,39.93,81.5,89s-36.56,89-81.5,89-81.5-39.93-81.5-89,36.56-89,81.5-89M1792.5,720c-45.56,0-82.5,40.29-82.5,90s36.94,90,82.5,90,82.5-40.29,82.5-90-36.94-90-82.5-90h0Z" stroke-width="0"/>
  </g>
  <g>
    <ellipse cx="1260" cy="690" rx="104.5" ry="149.5" fill="#fbb03b" stroke-width="0"/>
    <path d="M1260,541c57.35,0,104,66.84,104,149s-46.65,149-104,149-104-66.84-104-149,46.65-149,104-149M1260,540c-57.99,0-105,67.16-105,150s47.01,150,105,150,105-67.16,105-150-47.01-150-105-150h0Z" stroke-width="0"/>
  </g>
  <g>
    <ellipse cx="1012.5" cy="90" rx="82" ry="89.5" fill="#fbb03b" stroke-width="0"/>
    <path d="M1012.5,1c44.94,0,81.5,39.93,81.5,89s-36.56,89-81.5,89-81.5-39.93-81.5-89S967.56,1,1012.5,1M1012.5,0c-45.56,0-82.5,40.29-82.5,90s36.94,90,82.5,90,82.5-40.29,82.5-90S1058.06,0,1012.5,0h0Z" stroke-width="0"/>
  </g>
  <g>
    <ellipse cx="82.5" cy="540" rx="82" ry="119.5" fill="#f7931e" stroke-width="0"/>
    <path d="M82.5,421c44.94,0,81.5,53.38,81.5,119s-36.56,119-81.5,119S1,605.62,1,540s36.56-119,81.5-119M82.5,420c-45.56,0-82.5,53.73-82.5,120s36.94,120,82.5,120,82.5-53.73,82.5-120-36.94-120-82.5-120h0Z" stroke-width="0"/>
  </g>
</svg>