<svg width="500" height="500" xmlns="http://www.w3.org/2000/svg">
 <defs>
  <filter id="svg_1_blur">
   <feGaussianBlur stdDeviation="0" in="SourceGraphic"/>
  </filter>
 </defs>
 <g>
  <title>Layer 1</title>
  <ellipse filter="url(#svg_1_blur)" stroke="#000" ry="50" rx="50" id="svg_1" cy="1" cx="1" fill="#000000"/>
  <ellipse filter="url(#svg_1_blur)" stroke="#000" ry="50" rx="50" id="svg_2" cy="166" cx="5" fill="#000000"/>
  <ellipse filter="url(#svg_1_blur)" stroke="#000" ry="50" rx="50" id="svg_3" cy="127" cx="253" fill="#000000"/>
  <ellipse filter="url(#svg_1_blur)" stroke="#000" ry="50" rx="50" id="svg_4" cy="435" cx="396" fill="#000000"/>
  <ellipse filter="url(#svg_1_blur)" stroke="#000" ry="50" rx="50" id="svg_5" cy="299" cx="423" fill="#000000"/>
  <ellipse filter="url(#svg_1_blur)" stroke="#000" ry="50" rx="50" id="svg_6" cy="53" cx="138" fill="#000000"/>
  <ellipse filter="url(#svg_1_blur)" stroke="#000" ry="50" rx="50" id="svg_7" cy="-2" cx="329" fill="#000000"/>
  <ellipse filter="url(#svg_1_blur)" stroke="#000" ry="50" rx="50" id="svg_8" cy="135" cx="377" fill="#000000"/>
  <ellipse filter="url(#svg_1_blur)" stroke="#000" ry="50" rx="50" id="svg_9" cy="4" cx="462" fill="#000000"/>
  <ellipse filter="url(#svg_1_blur)" stroke="#000" ry="50" rx="50" id="svg_10" cy="223" cx="137" fill="#000000"/>
  <ellipse filter="url(#svg_1_blur)" stroke="#000" ry="50" rx="50" id="svg_11" cy="351" cx="65" fill="#000000"/>
  <ellipse filter="url(#svg_1_blur)" stroke="#000" ry="50" rx="50" id="svg_12" cy="282" cx="281" fill="#000000"/>
  <ellipse filter="url(#svg_1_blur)" stroke="#000" ry="50" rx="50" id="svg_13" cy="403" cx="191" fill="#000000"/>
  <ellipse filter="url(#svg_1_blur)" stroke="#000" ry="50" rx="50" id="svg_14" cy="517" cx="15" fill="#000000"/>
  <ellipse filter="url(#svg_1_blur)" stroke="#000" ry="50" rx="50" id="svg_15" cy="525" cx="302" fill="#000000"/>
  <ellipse filter="url(#svg_1_blur)" stroke="#000" ry="50" rx="50" id="svg_16" cy="207" cx="506" fill="#000000"/>
  <ellipse filter="url(#svg_1_blur)" stroke="#000" ry="50" rx="50" id="svg_17" cy="568" cx="474" fill="#fff"/>
  <ellipse filter="url(#svg_1_blur)" stroke="#000" ry="50" rx="50" id="svg_18" cy="567" cx="174" fill="#fff"/>
 </g>
</svg>