<svg width="1920" height="1280" xmlns="http://www.w3.org/2000/svg">
 <g id="Layer_1">
  <title>Layer 1</title>
  <ellipse ry="100" rx="104" id="svg_1" cy="45.98101" cx="51.97099" stroke="#000" fill="#000000"/>
  <ellipse ry="100" rx="104" id="svg_2" cy="501.99559" cx="519.98594" stroke="#000" fill="#000000"/>
  <ellipse ry="100" rx="104" id="svg_3" cy="666.00083" cx="27.97021" stroke="#000" fill="#000000"/>
  <ellipse ry="100" rx="104" id="svg_4" cy="710.00223" cx="751.99333" stroke="#000" fill="#000000"/>
  <ellipse ry="100" rx="104" id="svg_5" cy="1002.01157" cx="95.97238" stroke="#000" fill="#000000"/>
  <ellipse ry="100" rx="104" id="svg_6" cy="425.99317" cx="947.99959" stroke="#000" fill="#000000"/>
  <ellipse ry="100" rx="104" id="svg_7" cy="1010.01184" cx="919.99869" stroke="#000" fill="#000000"/>
  <ellipse ry="100" rx="104" id="svg_8" cy="730.00287" cx="1140.00573" stroke="#000" fill="#000000"/>
  <ellipse ry="100" rx="104" id="svg_9" cy="237.98716" cx="707.99189" stroke="#000" fill="#000000"/>
  <ellipse ry="100" rx="104" id="svg_10" cy="1250.01946" cx="631.98951" stroke="#000" fill="#000000"/>
  <ellipse ry="100" rx="104" id="svg_11" cy="1090.01435" cx="1312.01125" stroke="#000" fill="#000000"/>
  <ellipse ry="100" rx="104" id="svg_12" cy="417.9929" cx="1372.01318" stroke="#000" fill="#000000"/>
  <ellipse ry="100" rx="104" id="svg_13" cy="405.99252" cx="1744.02507" stroke="#000" fill="#000000"/>
  <ellipse ry="100" rx="104" id="svg_14" cy="1014.01193" cx="1676.02289" stroke="#000" fill="#000000"/>
  <ellipse ry="100" rx="104" id="svg_15" cy="109.98302" cx="1824.02762" stroke="#000" fill="#000000"/>
  <ellipse ry="100" rx="104" id="svg_16" cy="165.98481" cx="1176.00692" stroke="#000" fill="#000000"/>
  <ellipse ry="100" rx="104" id="svg_17" cy="61.98149" cx="1488.01687" stroke="#000" fill="#000000"/>
  <ellipse ry="100" rx="104" id="svg_18" cy="337.99035" cx="207.97598" stroke="#000" fill="#000000"/>
  <ellipse ry="100" rx="104" id="svg_19" cy="141.9841" cx="427.98302" stroke="#000" fill="#000000"/>
  <ellipse ry="100" rx="104" id="svg_20" cy="778.00438" cx="323.97966" stroke="#000" fill="#000000"/>
  <ellipse ry="100" rx="104" id="svg_21" cy="1246.01934" cx="259.97762" stroke="#000" fill="#000000"/>
  <ellipse ry="100" rx="104" id="svg_22" cy="750.00351" cx="1480.01663" stroke="#000" fill="#000000"/>
  <ellipse ry="100" rx="104" id="svg_23" cy="1222.01858" cx="1852.02852" stroke="#000" fill="#000000"/>
  <ellipse ry="100" rx="104" id="svg_24" cy="758.00375" cx="1872.02916" stroke="#000" fill="#000000"/>
  <ellipse ry="100" rx="104" id="svg_25" cy="-2.02051" cx="851.9965" stroke="#000" fill="#000000"/>
  <ellipse ry="100" rx="104" id="svg_26" cy="1278.0204" cx="1100.00444" stroke="#000" fill="#000000"/>
  <ellipse ry="100" rx="104" id="svg_27" cy="986.01102" cx="535.98644" stroke="#000" fill="#000000"/>
  <ellipse ry="100" rx="104" id="svg_28" cy="1298.02099" cx="1524.01804" stroke="#000" fill="#000000"/>
 </g>
</svg>